<svg xmlns="http://www.w3.org/2000/svg" id="Ebene_1" data-name="Ebene 1" viewBox="0 -50 420 252">
  <defs>
    <style>
      .cls-1{fill:#b4252d;}.cls-2{fill:#f39200;}
    </style>
  </defs>
  <path d="M14.77 30a61.38 61.38 0 0 1 6.15-.47q3.43-.11 6.23-.1a24.91 24.91 0 0 1 7.66 1.11 15 15 0 0 1 5.83 3.39 15.16 15.16 0 0 1 3.68 5.8A23.82 23.82 0 0 1 45.61 48a44.78 44.78 0 0 1-.61 6.8 38.29 38.29 0 0 1-1.9 7.3 33.47 33.47 0 0 1-3.54 7 25.51 25.51 0 0 1-13.2 10.1 31.08 31.08 0 0 1-10.23 1.54H13.3c-1.17 0-2.32-.06-3.47-.11-3.34-.19-5.25-.34-5.72-.43Zm12 4.72h-1.93l-2.08.07c-.67 0-1.31.06-1.93.11s-1.1.09-1.43.14l-8.5 40.12a7.62 7.62 0 0 0 1.15.11l1.82.07 1.87.07h1.25a20.11 20.11 0 0 0 10.52-2.58 22.1 22.1 0 0 0 7-6.51 27.27 27.27 0 0 0 3.9-8.66 36 36 0 0 0 1.22-8.94 21.56 21.56 0 0 0-.72-5.8 11.34 11.34 0 0 0-2.25-4.4 10.17 10.17 0 0 0-4-2.83 15.76 15.76 0 0 0-5.94-.96Z" class="cls-1"/>
  <path d="M71.66 49c-.43-.09-.87-.16-1.33-.21a11.34 11.34 0 0 0-1.25-.07 9.32 9.32 0 0 0-6.3 2.29 16.06 16.06 0 0 0-4.15 5.58L53.7 80.1h-5.37l7.58-35.78h3.72v6.15h.29a22.71 22.71 0 0 1 1.86-2.54A14.76 14.76 0 0 1 64 45.82a9.94 9.94 0 0 1 2.65-1.46 8.83 8.83 0 0 1 3.15-.54 11.91 11.91 0 0 1 3.29.5Z" class="cls-1"/>
  <path d="M97 76.59a17.15 17.15 0 0 1-5.91 3.26A21.84 21.84 0 0 1 84.25 81q-5.73 0-8.62-3.3t-2.9-9.16A31.55 31.55 0 0 1 74.37 58a25.35 25.35 0 0 1 4.33-7.87 19.05 19.05 0 0 1 6.09-4.94 15.21 15.21 0 0 1 7-1.72 12.64 12.64 0 0 1 4.48.72 8.93 8.93 0 0 1 3.11 1.89 7.49 7.49 0 0 1 1.79 2.72 9.32 9.32 0 0 1 .57 3.26c0 3.38-1.65 6.05-4.94 8s-8.08 2.89-14.38 2.89h-1.79c-.62 0-1.26-.06-1.93-.11-.19.91-.34 1.77-.43 2.58a17.6 17.6 0 0 0-.14 2.14 10.69 10.69 0 0 0 1.78 6.41 6.46 6.46 0 0 0 5.58 2.47 15.55 15.55 0 0 0 5.77-1 16.16 16.16 0 0 0 4-2.18ZM90.91 48a9.76 9.76 0 0 0-6.84 2.68 17 17 0 0 0-4.4 8.05c1.81 0 3.7 0 5.65-.14a26.23 26.23 0 0 0 5.33-.75 9.83 9.83 0 0 0 4-1.93A4.9 4.9 0 0 0 96 50.8a3.6 3.6 0 0 0-.82-1.36 4.36 4.36 0 0 0-1.61-1 7.56 7.56 0 0 0-2.66-.44Z" class="cls-1"/>
  <path d="M131.83 66a40.39 40.39 0 0 0-.78 5.37c-.15 1.81-.22 3.5-.22 5.08v2a9.36 9.36 0 0 0 .15 1.75H127l-1-6.2h-.29a19 19 0 0 1-2.11 2.46 18.18 18.18 0 0 1-2.75 2.26 14.69 14.69 0 0 1-3.22 1.61A11 11 0 0 1 114 81q-8.52 0-8.52-11.1a38.12 38.12 0 0 1 1.18-9.3 27.79 27.79 0 0 1 3.64-8.51 20.31 20.31 0 0 1 6.35-6.23 17.41 17.41 0 0 1 9.39-2.43 31.78 31.78 0 0 1 4.89.47 35.82 35.82 0 0 1 5.39 1.25Zm-16.17 10.38a7 7 0 0 0 3.29-.83 14.54 14.54 0 0 0 3-2 17.81 17.81 0 0 0 2.47-2.61 18.45 18.45 0 0 0 1.72-2.61l4-19.32a12.9 12.9 0 0 0-5.44-1 9.21 9.21 0 0 0-5.8 1.93 16 16 0 0 0-4.24 5.06 26.31 26.31 0 0 0-2.58 7 37 37 0 0 0-.85 7.87 9.18 9.18 0 0 0 1.07 4.62 3.6 3.6 0 0 0 3.36 1.89Z" class="cls-1"/>
  <path d="m159 80.1 4.3-20.25c.38-1.67.66-3.15.86-4.44a23.4 23.4 0 0 0 .28-3.36 5.25 5.25 0 0 0-.71-3 2.76 2.76 0 0 0-2.44-1 7.25 7.25 0 0 0-3.5.93 15.59 15.59 0 0 0-3.22 2.33 26.61 26.61 0 0 0-2.76 3 22.18 22.18 0 0 0-2 2.86l-4.72 23h-5.39l7.59-35.78h3.79l-.43 6.15h.29c.76-.76 1.58-1.56 2.47-2.39a18.06 18.06 0 0 1 6.44-3.94 12.38 12.38 0 0 1 4.18-.68q3.22 0 4.33 2a11.66 11.66 0 0 1 1.11 5.59 24.94 24.94 0 0 1 2.53-2.79 20.52 20.52 0 0 1 3.11-2.44 18.21 18.21 0 0 1 3.54-1.75 10.85 10.85 0 0 1 3.72-.68A7.4 7.4 0 0 1 187.4 45c1.16 1 1.75 2.92 1.75 5.69a39.7 39.7 0 0 1-1.07 7.94l-4.51 21.47h-5.37l4.51-21.54c.29-1.38.51-2.62.68-3.72a20.38 20.38 0 0 0 .25-2.86 4.66 4.66 0 0 0-.79-2.94 3.14 3.14 0 0 0-2.64-1A6.37 6.37 0 0 0 177 49a18.74 18.74 0 0 0-3.26 2.39 23.35 23.35 0 0 0-2.82 3.08 19.52 19.52 0 0 0-2 3.08l-4.6 22.55Z" class="cls-1"/>
  <path d="M107.17 103.52h5.3l1.5-7.08 5.72-1.65-1.86 8.73h9.38l-1.07 4.58h-9.31l-4.51 21.61c-.09.58-.18 1.1-.25 1.58a8.85 8.85 0 0 0-.11 1.28 3 3 0 0 0 .79 2.37 3.73 3.73 0 0 0 2.36.64 10.76 10.76 0 0 0 3.15-.43 12.1 12.1 0 0 0 2.87-1.29v4.37a14.08 14.08 0 0 1-3.87 1.39 20.23 20.23 0 0 1-4.51.54q-6.51 0-6.51-5.94a15.82 15.82 0 0 1 .36-3l4.87-23.11h-5.37Z" class="cls-2"/>
  <path d="M152.32 135.79a17 17 0 0 1-5.9 3.26 21.89 21.89 0 0 1-6.83 1.11c-3.82 0-6.69-1.1-8.63-3.29s-2.9-5.25-2.9-9.16a31.35 31.35 0 0 1 1.65-10.52 25.47 25.47 0 0 1 4.33-7.87 19.15 19.15 0 0 1 6.08-4.94 15.38 15.38 0 0 1 7-1.72 12.55 12.55 0 0 1 4.47.72 9 9 0 0 1 3.11 1.9 7.25 7.25 0 0 1 1.79 2.71 9.36 9.36 0 0 1 .58 3.26q0 5.09-4.94 8t-14.38 2.9h-1.79c-.61 0-1.27-.06-1.94-.1-.19.9-.33 1.76-.43 2.57a19.9 19.9 0 0 0-.14 2.15 10.66 10.66 0 0 0 1.79 6.4q1.78 2.47 5.58 2.47a15.3 15.3 0 0 0 5.76-1 16.25 16.25 0 0 0 4.05-2.18Zm-6.08-28.55a9.72 9.72 0 0 0-6.83 2.69 16.93 16.93 0 0 0-4.4 8c1.81 0 3.69 0 5.65-.14a27.14 27.14 0 0 0 5.33-.76 9.77 9.77 0 0 0 4-1.93 4.85 4.85 0 0 0 1.32-5.15 3.62 3.62 0 0 0-.82-1.36 4.15 4.15 0 0 0-1.61-1 7.46 7.46 0 0 0-2.64-.35Z" class="cls-2"/>
  <path d="M187.17 125.21a41.71 41.71 0 0 0-.79 5.36c-.14 1.82-.21 3.51-.21 5.08v2a10.55 10.55 0 0 0 .14 1.76h-3.94l-1-6.23h-.28a19.73 19.73 0 0 1-2.11 2.47 18.82 18.82 0 0 1-2.76 2.25 14.06 14.06 0 0 1-3.22 1.61 10.72 10.72 0 0 1-3.65.61q-8.52 0-8.51-11.09a38.06 38.06 0 0 1 1.18-9.3 27.6 27.6 0 0 1 3.64-8.52A20.17 20.17 0 0 1 172 105a17.36 17.36 0 0 1 9.39-2.44 31.78 31.78 0 0 1 4.89.47 39.11 39.11 0 0 1 5.39 1.25ZM171 135.58a7 7 0 0 0 3.29-.82 15.38 15.38 0 0 0 3-2 18.36 18.36 0 0 0 2.47-2.61 19.77 19.77 0 0 0 1.72-2.62l4-19.32a13 13 0 0 0-5.44-1 9.21 9.21 0 0 0-5.79 1.94 15.92 15.92 0 0 0-4.22 5 25.72 25.72 0 0 0-2.58 7 37 37 0 0 0-.86 7.87 9.17 9.17 0 0 0 1.08 4.61 3.57 3.57 0 0 0 3.33 1.95Z" class="cls-2"/>
  <path d="m214.29 139.3 4.29-20.25c.38-1.67.67-3.15.86-4.44a23.34 23.34 0 0 0 .29-3.36 5.17 5.17 0 0 0-.72-3 2.75 2.75 0 0 0-2.43-1 7.43 7.43 0 0 0-3.51.93 16.55 16.55 0 0 0-3.22 2.33 26.51 26.51 0 0 0-2.75 3 21.21 21.21 0 0 0-2 2.86l-4.72 23H195l7.59-35.78h3.79l-.43 6.16h.29c.76-.76 1.58-1.57 2.46-2.4a18.74 18.74 0 0 1 2.94-2.25 17.77 17.77 0 0 1 3.51-1.68 12.1 12.1 0 0 1 4.18-.69q3.23 0 4.33 2a11.61 11.61 0 0 1 1.11 5.58 26.77 26.77 0 0 1 2.5-2.72 19.93 19.93 0 0 1 3.12-2.43 17.66 17.66 0 0 1 3.54-1.75 10.63 10.63 0 0 1 3.72-.69 7.44 7.44 0 0 1 5 1.54q1.76 1.55 1.76 5.69a39.2 39.2 0 0 1-1.08 8l-4.43 21.35h-5.36l4.51-21.54c.28-1.38.51-2.62.68-3.72a20.26 20.26 0 0 0 .25-2.86 4.69 4.69 0 0 0-.79-2.93 3.18 3.18 0 0 0-2.65-1 6.46 6.46 0 0 0-3.18 1 18.3 18.3 0 0 0-3.26 2.4 22.1 22.1 0 0 0-2.82 3.08 18.77 18.77 0 0 0-2 3.07l-4.65 22.54Z" class="cls-2"/>
  <path d="M344.8 5.86c-1 0-2 .06-3 .1v65.16h15.78v25.39c5.42.09 14.84-1.61 23.57-12.41 0 0-.05 20.77-23.57 26.42v34.68A70.25 70.25 0 0 0 344.8 5.86Zm18.68 52a7.14 7.14 0 1 1 7.13-7.13 7.13 7.13 0 0 1-7.13 7.09Z" class="cls-2"/>
  <path d="M333.55 80.86V55.85c-5.17-.34-15.36.76-24.74 12.36 0 0 0-21.49 24.71-26.72l-.07-34.6a70.27 70.27 0 0 0 11.65 139.56c1.44 0 2.88 0 4.3-.13V80.86Zm-7.13 27.9a7.13 7.13 0 1 1 7.13-7.13 7.13 7.13 0 0 1-7.13 7.13Z" class="cls-1"/>
</svg>
