<svg xmlns="http://www.w3.org/2000/svg" id="Ebene_1" data-name="Ebene 1" viewBox="0 0 420 152">
  <defs>
    <style>
      .cls-1{fill:#1d1d1b;}
    </style>
  </defs>
  <path d="M16.67 29.3q2.73-.36 6.16-.47t6.22-.11a24.81 24.81 0 0 1 7.66 1.12A14.4 14.4 0 0 1 46.23 39a24.07 24.07 0 0 1 1.28 8.23 44.88 44.88 0 0 1-.57 6.83 38.26 38.26 0 0 1-1.89 7.3 34 34 0 0 1-3.55 7 25.5 25.5 0 0 1-5.51 6 25.93 25.93 0 0 1-7.72 4.15A31.1 31.1 0 0 1 18 80h-2.82c-1.17 0-2.33-.06-3.47-.11-3.31-.19-5.22-.34-5.71-.43Zm12 4.72h-1.93l-2.07.07c-.67 0-1.32.06-1.94.1s-1.09.1-1.43.15l-8.49 40.11a7.29 7.29 0 0 0 1.14.11l1.83.07 1.86.07h1.25a20.08 20.08 0 0 0 10.52-2.58 22.14 22.14 0 0 0 7-6.51A27.59 27.59 0 0 0 40.29 57a35.93 35.93 0 0 0 1.21-8.94 22 22 0 0 0-.71-5.8 11.49 11.49 0 0 0-2.26-4.4 10.09 10.09 0 0 0-4-2.83A15.56 15.56 0 0 0 28.62 34Z" class="cls-1"/>
  <path d="M73.56 48.33q-.65-.13-1.32-.21a11.48 11.48 0 0 0-1.24-.07 9.32 9.32 0 0 0-6.3 2.28 16.07 16.07 0 0 0-4.15 5.59L55.6 79.39h-5.37l7.59-35.78h3.72v6.15h.29a22.71 22.71 0 0 1 1.86-2.54 14.23 14.23 0 0 1 2.21-2.11 10.25 10.25 0 0 1 2.65-1.46 8.9 8.9 0 0 1 3.15-.54 11.85 11.85 0 0 1 3.29.5Z" class="cls-1"/>
  <path d="M98.89 75.88A17.19 17.19 0 0 1 93 79.14a21.94 21.94 0 0 1-6.84 1.1c-3.81 0-6.69-1.09-8.62-3.29s-2.9-5.24-2.9-9.16a31.29 31.29 0 0 1 1.65-10.51 25.35 25.35 0 0 1 4.33-7.87 19 19 0 0 1 6.08-4.94 15.25 15.25 0 0 1 7-1.72 12.55 12.55 0 0 1 4.47.72 8.78 8.78 0 0 1 3.11 1.89 7.37 7.37 0 0 1 1.72 2.72 9.32 9.32 0 0 1 .57 3.26q0 5.07-4.93 8t-14.35 2.87h-1.78c-.63 0-1.27-.06-1.94-.11-.19.91-.33 1.77-.43 2.58a19.73 19.73 0 0 0-.14 2.11 10.69 10.69 0 0 0 1.79 6.41 6.44 6.44 0 0 0 5.58 2.47 15.5 15.5 0 0 0 5.76-1 16 16 0 0 0 4-2.18Zm-6.08-28.55A9.78 9.78 0 0 0 86 50a16.93 16.93 0 0 0-4.4 8.05c1.82 0 3.7 0 5.66-.14a27.16 27.16 0 0 0 5.33-.75 10 10 0 0 0 4-1.93 4.56 4.56 0 0 0 1.57-3.69 4.63 4.63 0 0 0-.25-1.47 3.62 3.62 0 0 0-.91-1.35 4.4 4.4 0 0 0-1.61-1 7.48 7.48 0 0 0-2.58-.39Z" class="cls-1"/>
  <path d="M133.74 65.29a40.17 40.17 0 0 0-.79 5.37c-.14 1.81-.21 3.5-.21 5.08v2a9.48 9.48 0 0 0 .14 1.75h-3.94l-1-6.23h-.28a19.17 19.17 0 0 1-2.11 2.47 18.26 18.26 0 0 1-2.76 2.27 14.69 14.69 0 0 1-3.22 1.61 11 11 0 0 1-3.65.6q-8.52 0-8.52-11.09a38.62 38.62 0 0 1 1.18-9.3 28 28 0 0 1 3.64-8.51 20.34 20.34 0 0 1 6.36-6.23 17.36 17.36 0 0 1 9.42-2.4 31.61 31.61 0 0 1 4.89.46 37.69 37.69 0 0 1 5.39 1.26Zm-16.17 10.38a7 7 0 0 0 3.29-.83 14.54 14.54 0 0 0 3-2 18.36 18.36 0 0 0 2.47-2.61 19.23 19.23 0 0 0 1.67-2.65l4-19.32a12.83 12.83 0 0 0-5.44-1 9.2 9.2 0 0 0-5.79 1.93 16 16 0 0 0-4.22 5.05 25.65 25.65 0 0 0-2.58 7 37 37 0 0 0-.86 7.87 9.28 9.28 0 0 0 1.07 4.62 3.62 3.62 0 0 0 3.39 1.94Z" class="cls-1"/>
  <path d="m160.86 79.39 4.29-20.25c.38-1.67.67-3.15.86-4.44a23.4 23.4 0 0 0 .28-3.36 5.25 5.25 0 0 0-.71-3 2.75 2.75 0 0 0-2.43-1 7.29 7.29 0 0 0-3.51.93 15.86 15.86 0 0 0-3.22 2.33 26.51 26.51 0 0 0-2.75 3 19.76 19.76 0 0 0-2 2.86l-4.72 23h-5.37l7.58-35.78H153l-.43 6.15h.28c.76-.76 1.59-1.56 2.47-2.39a18.29 18.29 0 0 1 6.44-3.94 12.44 12.44 0 0 1 4.19-.68c2.14 0 3.59.67 4.33 2a11.64 11.64 0 0 1 1.11 5.58 25.69 25.69 0 0 1 2.5-2.71 20.52 20.52 0 0 1 3.11-2.51 18.21 18.21 0 0 1 3.54-1.75 11 11 0 0 1 3.73-.68 7.39 7.39 0 0 1 5 1.54c1.17 1 1.75 2.92 1.75 5.69a39.7 39.7 0 0 1-1.02 7.94l-4.51 21.47h-5.36l4.5-21.54c.29-1.38.51-2.62.68-3.72a19 19 0 0 0 .25-2.86 4.73 4.73 0 0 0-.78-2.94 3.18 3.18 0 0 0-2.65-1 6.36 6.36 0 0 0-3.18 1 18.37 18.37 0 0 0-3.26 2.39 23.43 23.43 0 0 0-2.83 3.08 20.27 20.27 0 0 0-2 3.08l-4.65 22.54Z" class="cls-1"/>
  <path d="M109.07 102.81h5.3l1.5-7.08 5.73-1.65-1.86 8.73h9.37l-1.11 4.58h-9.3L114.23 129c-.1.58-.18 1.1-.25 1.58a8.85 8.85 0 0 0-.11 1.28 2.89 2.89 0 0 0 .79 2.36 3.65 3.65 0 0 0 2.36.65 10.86 10.86 0 0 0 3.15-.43 12.22 12.22 0 0 0 2.86-1.29v4.37a14.28 14.28 0 0 1-3.87 1.39 20.14 20.14 0 0 1-4.5.54q-6.51 0-6.51-5.94a15.7 15.7 0 0 1 .35-3l4.87-23.11H108Z" class="cls-1"/>
  <path d="M154.23 135.08a17 17 0 0 1-5.91 3.26 21.84 21.84 0 0 1-6.83 1.11q-5.73 0-8.62-3.29T130 127a31.35 31.35 0 0 1 1.65-10.52 25.45 25.45 0 0 1 4.32-7.87 19.19 19.19 0 0 1 6.09-4.94 15.34 15.34 0 0 1 7-1.72 12.64 12.64 0 0 1 4.48.72 9 9 0 0 1 3.11 1.9 7.37 7.37 0 0 1 1.79 2.71 9.36 9.36 0 0 1 .57 3.26q0 5.08-4.94 8t-14.38 2.9h-1.79c-.62 0-1.26-.06-1.93-.11-.19.91-.34 1.77-.43 2.58a17.63 17.63 0 0 0-.14 2.15 10.59 10.59 0 0 0 1.79 6.4q1.78 2.47 5.58 2.47a15.53 15.53 0 0 0 5.76-1 16.16 16.16 0 0 0 4-2.18Zm-6.09-28.55a9.72 9.72 0 0 0-6.83 2.69 16.93 16.93 0 0 0-4.4 8c1.81 0 3.7 0 5.65-.15a26.23 26.23 0 0 0 5.33-.75 9.87 9.87 0 0 0 4-1.93 4.91 4.91 0 0 0 1.32-5.15 3.67 3.67 0 0 0-.82-1.36 4.22 4.22 0 0 0-1.61-1 7.56 7.56 0 0 0-2.64-.35Z" class="cls-1"/>
  <path d="M189.07 124.49a40.39 40.39 0 0 0-.78 5.37c-.14 1.81-.22 3.51-.22 5.08v2a10.34 10.34 0 0 0 .14 1.75h-3.93l-1-6.22H183a18.93 18.93 0 0 1-2.11 2.47 17.82 17.82 0 0 1-2.76 2.25 14.19 14.19 0 0 1-3.21 1.61 10.8 10.8 0 0 1-3.65.61q-8.52 0-8.52-11.09a38.06 38.06 0 0 1 1.18-9.3 27.85 27.85 0 0 1 3.64-8.52 20.42 20.42 0 0 1 6.35-6.23 17.41 17.41 0 0 1 9.39-2.43 31.78 31.78 0 0 1 4.89.47 38.44 38.44 0 0 1 5.39 1.25Zm-16.17 10.38a6.94 6.94 0 0 0 3.29-.82 15.38 15.38 0 0 0 3-2 17.81 17.81 0 0 0 2.47-2.61 18.51 18.51 0 0 0 1.72-2.62l4-19.32a13 13 0 0 0-5.44-1 9.27 9.27 0 0 0-5.8 1.93 16.1 16.1 0 0 0-4.22 5 25.91 25.91 0 0 0-2.57 7 36.27 36.27 0 0 0-.86 7.87 9.17 9.17 0 0 0 1.07 4.61 3.58 3.58 0 0 0 3.34 1.96Z" class="cls-1"/>
  <path d="m216.19 138.59 4.3-20.25c.38-1.67.67-3.15.86-4.44a23.29 23.29 0 0 0 .28-3.36 5.25 5.25 0 0 0-.71-3 2.76 2.76 0 0 0-2.44-1 7.37 7.37 0 0 0-3.5.93 16 16 0 0 0-3.22 2.33 27.59 27.59 0 0 0-2.76 3 22.18 22.18 0 0 0-2 2.86l-4.72 23h-5.37l7.59-35.78h3.79l-.43 6.16h.29c.76-.76 1.58-1.57 2.47-2.4a18.25 18.25 0 0 1 2.93-2.26 19.28 19.28 0 0 1 3.51-1.68 12.38 12.38 0 0 1 4.18-.68q3.22 0 4.33 2a11.59 11.59 0 0 1 1.11 5.58 25.89 25.89 0 0 1 2.51-2.72 19.85 19.85 0 0 1 3.11-2.43 18.25 18.25 0 0 1 3.54-1.76 10.85 10.85 0 0 1 3.72-.68 7.46 7.46 0 0 1 5 1.54c1.16 1 1.75 2.93 1.75 5.69a39.62 39.62 0 0 1-1.07 7.94l-4.51 21.47h-5.37l4.64-21.6c.29-1.38.51-2.62.68-3.72a18.87 18.87 0 0 0 .25-2.86 4.63 4.63 0 0 0-.79-2.93 3.15 3.15 0 0 0-2.64-1 6.47 6.47 0 0 0-3.19 1 18.24 18.24 0 0 0-3.25 2.4 22.69 22.69 0 0 0-2.83 3.07 20 20 0 0 0-2 3.08l-4.65 22.54Z" class="cls-1"/>
  <path d="M346.71 5.15c-1 0-2 .06-3 .1v65.16h15.77V95.8c5.43.09 14.85-1.61 23.58-12.41 0 0-.06 20.77-23.58 26.42v34.68A70.25 70.25 0 0 0 346.71 5.15Zm18.68 52a7.14 7.14 0 1 1 7.13-7.15 7.14 7.14 0 0 1-7.13 7.11Z" class="cls-1"/>
  <path d="M335.45 80.15V55.14c-5.16-.35-15.35.76-24.74 12.36 0 0 0-21.49 24.71-26.72l-.06-34.6A70.27 70.27 0 0 0 347 145.74c1.45 0 2.88-.05 4.31-.13V80.15Zm-7.13 27.9a7.13 7.13 0 1 1 7.14-7.13 7.13 7.13 0 0 1-7.14 7.13Z" class="cls-1"/>
</svg>
